# xmcd CD database file
#
# Track frame offsets:
#	150
#	15929
#	30256
#	41809
#	55288
#	65791
#	73884
#	88797
#	99850
#	111477
#	122955
#	136859
#	145587
#	159340
#	169443
#	181772
#	201849
#	211652
#	221156
#	229384
#	254712
#	269241
#	283568
#	297672
#	311051
#
# Disc length: 4408 seconds
#
# Revision: 0
# Processed by: cddbd v1.5.1PL2 Copyright (c) Steve Scherf et al.
# Submitted via: CDex 1.51
#
DISCID=8d113619
DTITLE=Marty Robbins - Under Western Skies - disc 2
DYEAR=1900
DGENRE=Country
TTITLE0=01-Jimmy Martinez
TTITLE1=02-Ghost Train
TTITLE2=03-Song Of The Bandit
TTITLE3=04-Wind
TTITLE4=05-Prairie Fire
TTITLE5=06-My Love
TTITLE6=07-Ride Cowboy Ride
TTITLE7=08-Red River Valley
TTITLE8=09-The Bend In The River
TTITLE9=10-When The Works All Done This Fall
TTITLE10=11-Abilene Rose
TTITLE11=12-Dusty Winds
TTITLE12=13-Old Red
TTITLE13=14-Doggone Cowboy
TTITLE14=15-When The Work's All Done This Fall
TTITLE15=16-Small Man
TTITLE16=17-The Red Hills Of Utah
TTITLE17=18-Tall Handsome Stranger
TTITLE18=19-The Fasted Gun Around
TTITLE19=20-San Angelo
TTITLE20=21-Old Red
TTITLE21=22-Man Walks Among Us
TTITLE22=23-Johnny Fedavo
TTITLE23=24-The Master's Call
TTITLE24=25-El Paso (Short Version, Stereo)
EXTD=
EXTT0=
EXTT1=
EXTT2=
EXTT3=
EXTT4=
EXTT5=
EXTT6=
EXTT7=
EXTT8=
EXTT9=
EXTT10=
EXTT11=
EXTT12=
EXTT13=
EXTT14=
EXTT15=
EXTT16=
EXTT17=
EXTT18=
EXTT19=
EXTT20=
EXTT21=
EXTT22=
EXTT23=
EXTT24=
PLAYORDER=
